# Alias OBJ Model File
# Exported from SketchUp, (c) 2000-2012 Trimble Navigation Limited
# File units = meters

mtllib light.mtl

g Mesh1 fw1 Group1 Model

usemtl lw#lighttranslucent
v -1.14032 1.04244 7.4191
vt 0 0
vn 3.1106e-18 1.69514e-16 0.0260579
v -0.640321 1.04244 7.4191
vt 1 0
v -1.14032 1.53351 7.4191
vt 0 1
f 1/1/1 2/2/1 3/3/1

v -0.640321 1.53351 7.4191
vt 1 1
f 4/4/1 3/3/1 2/2/1

g Mesh2 fw1 Group1 Model

v 0.645769 1.04244 7.4191
v 1.14577 1.04244 7.4191
v 0.645769 1.53351 7.4191
f 5/1/1 6/2/1 7/3/1

v 1.14577 1.53351 7.4191
f 8/4/1 7/3/1 6/2/1

g Mesh3 bw1 Group1 Model

v 1.14032 1.04244 -7.4191
vn 0 0 -0.0260579
v 0.640321 1.04244 -7.4191
v 1.14032 1.53351 -7.4191
f 9/1/2 10/2/2 11/3/2

v 0.640321 1.53351 -7.4191
f 12/4/2 11/3/2 10/2/2

g Mesh4 bw1 Group1 Model

v -0.645769 1.04244 -7.4191
v -1.14577 1.04244 -7.4191
v -0.645769 1.53351 -7.4191
f 13/1/2 14/2/2 15/3/2

v -1.14577 1.53351 -7.4191
f 16/4/2 15/3/2 14/2/2

g Mesh5 br1 Group1 Model

usemtl lr#lighttranslucent
v -0.823269 1.02932 -7.4191
v -1.34827 1.02932 -7.4191
v -0.823269 1.54495 -7.4191
f 17/1/2 18/2/2 19/3/2

v -1.34827 1.54495 -7.4191
f 20/4/2 19/3/2 18/2/2

g Mesh6 br1 Group1 Model

v 1.34282 1.02932 -7.4191
v 0.817821 1.02932 -7.4191
v 1.34282 1.54495 -7.4191
f 21/1/2 22/2/2 23/3/2

v 0.817821 1.54495 -7.4191
f 24/4/2 23/3/2 22/2/2

g Mesh7 fr1 Group1 Model

v 0.823269 1.02932 7.4191
v 1.34827 1.02932 7.4191
v 0.823269 1.54495 7.4191
f 25/1/1 26/2/1 27/3/1

v 1.34827 1.54495 7.4191
f 28/4/1 27/3/1 26/2/1

g Mesh8 fr1 Group1 Model

v -1.34282 1.02932 7.4191
v -0.817821 1.02932 7.4191
v -1.34282 1.54495 7.4191
f 29/1/1 30/2/1 31/3/1

v -0.817821 1.54495 7.4191
f 32/4/1 31/3/1 30/2/1

