# Alias OBJ Model File
# Exported from SketchUp, (c) 2000-2012 Trimble Navigation Limited
# File units = meters

mtllib danguizhu1.mtl

g Mesh1 Group3 Group2 Group1 Model

usemtl jiao
v -0.39 0.040392 0.155077
vt 0.655077 0.918025
vn -1 1.58735e-16 -0
v -0.39 -0.209052 0.399047
vt 0.899047 0.178547
v -0.39 0.040392 0.399047
vt 0.899047 0.918025
f 1/1/1 2/2/1 3/3/1

v -0.39 -0.209052 0.155077
vt 0.655077 0.178547
f 4/4/1 2/2/1 1/1/1

v -0.39 -0.26928 0.0783019
vt 0.578302 -1.921e-15
f 5/5/1 2/2/1 4/4/1

v -0.39 -0.26928 0.479765
vt 0.979766 -1.921e-15
f 6/6/1 2/2/1 5/5/1

v -0.39 -0.209052 0.479765
vt 0.979766 0.178547
f 2/2/1 6/6/1 7/7/1

vt 0.979766 -3.6549e-15
vn 0 0 1
v -0.3 -0.209052 0.479765
f 6/8/2 8/7/2 7/7/2

v -0.3 -0.26928 0.479765
vt 0.979766 -3.66738e-15
f 8/7/2 6/8/2 9/9/2

vn 9.39747e-16 -1 -0
v -0.3 -0.26928 0.0783019
vt 0.578302 -3.66738e-15
f 6/8/3 10/10/3 9/9/3

vt 0.578302 -3.6549e-15
f 10/10/3 6/8/3 5/11/3

v -0.39 -0.209052 0.0783019
vt 0.578302 0.178547
vn 0 0 -1
f 11/12/4 10/10/4 5/11/4

v -0.3 -0.209052 0.0783019
f 10/10/4 11/12/4 12/12/4

vn -9.39747e-16 1 -0
v -0.3 -0.209052 0.155077
f 11/12/5 13/4/5 12/12/5

f 13/4/5 11/12/5 4/4/5

f 5/5/1 4/4/1 11/12/1

f 1/1/4 13/4/4 4/4/4

v -0.3 0.040392 0.155077
f 13/4/4 1/1/4 14/1/4

v -0.3 0.040392 0.399047
f 1/1/5 15/3/5 14/1/5

f 15/3/5 1/1/5 3/3/5

v -0.3 -0.209052 0.399047
f 3/3/2 16/2/2 15/3/2

f 16/2/2 3/3/2 2/2/2

f 2/2/5 8/7/5 16/2/5

f 8/7/5 2/2/5 7/7/5

vn 1 -1.58735e-16 -0
vt 0.578302 -2.12614e-15
f 8/7/6 10/13/6 16/2/6

vt 0.979766 -2.12614e-15
f 10/13/6 8/7/6 9/14/6

f 16/2/6 10/13/6 13/4/6

f 13/4/6 10/13/6 12/12/6

f 16/2/6 13/4/6 15/3/6

f 14/1/6 15/3/6 13/4/6

g Mesh2 Group3 Group2 Group1 Model

v -0.3 -0.26928 -0.48584
vt 0.0141587 -1.93348e-15
v -0.3 -0.207875 -0.0959407
vt 0.404059 0.182037
v -0.3 -0.26928 -0.0959407
vt 0.404059 -1.93348e-15
f 17/15/6 18/16/6 19/17/6

v -0.3 -0.207875 -0.144318
vt 0.355682 0.182037
f 18/16/6 17/15/6 20/18/6

v -0.3 -0.207875 -0.403471
vt 0.0965287 0.182037
f 20/18/6 17/15/6 21/19/6

v -0.3 -0.207875 -0.48584
vt 0.0141587 0.182037
f 21/19/6 17/15/6 22/20/6

vt 0.0141587 -3.66738e-15
v -0.39 -0.207875 -0.48584
f 17/21/4 23/20/4 22/20/4

v -0.39 -0.26928 -0.48584
vt 0.0141587 -3.6549e-15
f 23/20/4 17/21/4 24/22/4

v -0.39 -0.26928 -0.0959407
vt 0.404059 -3.6549e-15
f 17/21/3 25/23/3 24/22/3

vt 0.404059 -3.66738e-15
f 25/23/3 17/21/3 19/24/3

f 18/16/2 25/23/2 19/24/2

v -0.39 -0.207875 -0.0959407
f 25/23/2 18/16/2 26/16/2

v -0.39 -0.207875 -0.144318
f 18/16/5 27/18/5 26/16/5

f 27/18/5 18/16/5 20/18/5

v -0.39 0.040392 -0.144318
vt 0.355682 0.918025
f 20/18/2 28/25/2 27/18/2

v -0.3 0.040392 -0.144318
f 28/25/2 20/18/2 29/25/2

f 20/18/6 21/19/6 29/25/6

v -0.3 0.040392 -0.403471
vt 0.0965287 0.918025
f 30/26/6 29/25/6 21/19/6

v -0.39 0.040392 -0.403471
f 31/26/5 29/25/5 30/26/5

f 29/25/5 31/26/5 28/25/5

f 31/26/1 27/18/1 28/25/1

v -0.39 -0.207875 -0.403471
f 32/19/1 27/18/1 31/26/1

vt 0.0141587 -1.921e-15
f 24/27/1 27/18/1 32/19/1

vt 0.404059 -1.921e-15
f 25/28/1 27/18/1 24/27/1

f 27/18/1 25/28/1 26/16/1

f 24/27/1 32/19/1 23/20/1

f 21/19/5 23/20/5 32/19/5

f 23/20/5 21/19/5 22/20/5

f 31/26/4 21/19/4 32/19/4

f 21/19/4 31/26/4 30/26/4

g Mesh3 Group4 Group2 Group1 Model

v 0.38 0.040392 -0.161153
v 0.38 -0.209052 -0.405122
v 0.38 0.040392 -0.405122
f 33/1/6 34/2/6 35/3/6

v 0.38 -0.209052 -0.161153
f 36/4/6 34/2/6 33/1/6

v 0.38 -0.26928 -0.0843772
f 37/5/6 34/2/6 36/4/6

v 0.38 -0.26928 -0.48584
f 38/6/6 34/2/6 37/5/6

v 0.38 -0.209052 -0.48584
f 34/2/6 38/6/6 39/7/6

vn -0 0 -1
v 0.29 -0.209052 -0.48584
f 38/8/7 40/7/7 39/7/7

v 0.29 -0.26928 -0.48584
f 40/7/7 38/8/7 41/9/7

vn -4.69981e-16 -1 -0
v 0.29 -0.26928 -0.0843772
f 38/8/8 42/10/8 41/9/8

f 42/10/8 38/8/8 37/11/8

v 0.38 -0.209052 -0.0843772
f 43/12/2 42/10/2 37/11/2

v 0.29 -0.209052 -0.0843772
f 42/10/2 43/12/2 44/12/2

vn 4.69981e-16 1 -0
v 0.29 -0.209052 -0.161153
f 43/12/9 45/4/9 44/12/9

f 45/4/9 43/12/9 36/4/9

f 37/5/6 36/4/6 43/12/6

f 33/1/2 45/4/2 36/4/2

v 0.29 0.040392 -0.161153
f 45/4/2 33/1/2 46/1/2

v 0.29 0.040392 -0.405122
f 33/1/9 47/3/9 46/1/9

f 47/3/9 33/1/9 35/3/9

v 0.29 -0.209052 -0.405122
f 35/3/7 48/2/7 47/3/7

f 48/2/7 35/3/7 34/2/7

f 34/2/9 40/7/9 48/2/9

f 40/7/9 34/2/9 39/7/9

f 40/7/1 42/13/1 48/2/1

f 42/13/1 40/7/1 41/14/1

f 48/2/1 42/13/1 45/4/1

f 45/4/1 42/13/1 44/12/1

f 48/2/1 45/4/1 47/3/1

f 46/1/1 47/3/1 45/4/1

g Mesh4 Group4 Group2 Group1 Model

v 0.29 -0.26928 0.479765
v 0.29 -0.207875 0.0898654
v 0.29 -0.26928 0.0898654
f 49/15/1 50/16/1 51/17/1

v 0.29 -0.207875 0.138242
f 50/16/1 49/15/1 52/18/1

v 0.29 -0.207875 0.397395
f 52/18/1 49/15/1 53/19/1

v 0.29 -0.207875 0.479765
f 53/19/1 49/15/1 54/20/1

v 0.38 -0.207875 0.479765
f 49/21/2 55/20/2 54/20/2

v 0.38 -0.26928 0.479765
f 55/20/2 49/21/2 56/22/2

v 0.38 -0.26928 0.0898654
f 49/21/8 57/23/8 56/22/8

f 57/23/8 49/21/8 51/24/8

f 50/16/7 57/23/7 51/24/7

v 0.38 -0.207875 0.0898654
f 57/23/7 50/16/7 58/16/7

v 0.38 -0.207875 0.138242
f 50/16/9 59/18/9 58/16/9

f 59/18/9 50/16/9 52/18/9

v 0.38 0.040392 0.138242
f 52/18/7 60/25/7 59/18/7

v 0.29 0.040392 0.138242
f 60/25/7 52/18/7 61/25/7

f 52/18/1 53/19/1 61/25/1

v 0.29 0.040392 0.397395
f 62/26/1 61/25/1 53/19/1

v 0.38 0.040392 0.397395
f 63/26/9 61/25/9 62/26/9

f 61/25/9 63/26/9 60/25/9

f 63/26/6 59/18/6 60/25/6

v 0.38 -0.207875 0.397395
f 64/19/6 59/18/6 63/26/6

f 56/27/6 59/18/6 64/19/6

f 57/28/6 59/18/6 56/27/6

f 59/18/6 57/28/6 58/16/6

f 56/27/6 64/19/6 55/20/6

f 53/19/9 55/20/9 64/19/9

f 55/20/9 53/19/9 54/20/9

f 63/26/2 53/19/2 64/19/2

f 53/19/2 63/26/2 62/26/2

g Mesh5 Group2 Group1 Model

usemtl _
v -0.482076 -0.26928 -0.499999
vt -0.542972 0.549827
v 0.482076 -0.37928 -0.499999
vt -0.56889 0.547165
v -0.482076 -0.37928 -0.499999
vt -0.542972 0.547165
f 65/29/4 66/30/4 67/31/4

v 0.482076 -0.26928 -0.499999
vt -0.56889 0.549827
f 66/30/4 65/29/4 68/32/4

v -0.35 -0.26928 -0.499999
vt -0.546523 0.549827
f 68/32/4 65/29/4 69/33/4

vt -0.676417 0.560478
vn -5.76194e-15 1 5.29646e-19
v -0.35 -0.26928 0.499999
vt -0.672866 0.533851
vt -0.672866 0.560478
f 65/34/10 70/35/10 69/36/10

v -0.482076 -0.26928 0.499999
vt -0.676417 0.533851
f 70/35/10 65/34/10 71/37/10

vt -0.623135 0.549827
vn -1 0 -0
v -0.482076 -0.37928 0.499999
vt -0.596254 0.547165
vt -0.596254 0.549827
f 65/38/11 72/39/11 71/40/11

vt -0.623135 0.547165
f 72/39/11 65/38/11 67/41/11

vt -0.676417 0.547165
vn -4.16428e-17 5.02736e-16 1
v 0.482076 -0.26928 0.499999
vt -0.650499 0.549827
vt -0.676417 0.549827
f 72/42/12 73/43/12 71/44/12

v 0.482076 -0.37928 0.499999
vt -0.650499 0.547165
f 73/43/12 72/42/12 74/45/12

vn 1 0 -0
f 66/39/13 73/38/13 74/41/13

f 73/38/13 66/39/13 68/40/13

vn 9.14596e-16 1 5.29646e-19
vt -0.650499 0.533851
vt -0.650499 0.560478
f 69/36/14 73/46/14 68/47/14

v -0.35 -0.26928 -0.48584
vt -0.672866 0.560101
f 75/48/14 73/46/14 69/36/14

v -0.35 -0.26928 -0.0959407
vt -0.672866 0.549719
f 76/49/14 73/46/14 75/48/14

v -0.35 -0.26928 0.0783019
vt -0.672866 0.54508
f 77/50/14 73/46/14 76/49/14

v -0.35 -0.26928 0.479765
vt -0.672866 0.53439
f 78/51/14 73/46/14 77/50/14

f 73/46/14 78/51/14 70/35/14

f 69/36/10 70/35/10 78/51/10

f 69/36/10 78/51/10 77/50/10

f 69/36/10 77/50/10 76/49/10

f 69/36/10 76/49/10 75/48/10

vt -0.672866 0.549827
f 71/44/12 73/43/12 70/52/12

g Mesh6 Group5 Group1 Model

v -0.5 -1.26419 0.41
vt -0.00245642 0.298225
vn -0.995632 0 0.0933618
v -0.48409 -13.1957 0.49409
vt -0.000316881 0
vn -0.707107 0 0.707106
v -0.48409 -1.26419 0.49409
vt -0.000316881 0.298225
f 79/53/15 80/54/16 81/55/16

v -0.5 -13.1957 0.41
vt -0.00245642 0
f 80/54/16 79/53/15 82/56/15

v -0.5 -1.26419 -0.41
vt -0.023 0.298225
vn -0.995632 0 -0.0933618
vt -0.0025 0
vt -0.0025 0.298225
f 83/57/17 82/58/15 79/59/15

v -0.5 -13.1957 -0.41
vt -0.023 0
f 82/58/15 83/57/17 84/60/17

v -0.48409 -1.26419 -0.49409
vt -0.0247386 0.298225
vn -0.707107 0 -0.707106
vt -0.022599 0
vt -0.022599 0.298225
f 85/61/18 84/62/17 83/63/17

v -0.48409 -13.1957 -0.49409
vt -0.0247386 0
f 84/62/17 85/61/18 86/64/18

vt -0.00505757 0.298225
v -0.4 -13.1957 -0.51
vt -0.00719711 0
vn -0.0933626 0 -0.995632
vt -0.00505757 0
f 85/65/18 87/66/19 86/67/18

v -0.4 -1.26419 -0.51
vt -0.00719711 0.298225
f 87/66/19 85/65/18 88/68/19

v 0.4 -13.1957 -0.51
vt -0.0225 0
vn 0.0933626 0 -0.995632
f 88/59/19 89/69/20 87/58/19

v 0.4 -1.26419 -0.51
vt -0.0225 0.298225
f 89/69/20 88/59/19 90/70/20

vt -0.0173671 0.298225
v 0.48409 -13.1957 -0.49409
vt -0.0195066 0
vn 0.707107 0 -0.707106
vt -0.0173671 0
f 90/71/20 91/72/21 89/73/20

v 0.48409 -1.26419 -0.49409
vt -0.0195066 0.298225
f 91/72/21 90/71/20 92/74/21

v 0.5 -1.26419 -0.41
vt 0.0179513 0.298225
vn 0.995632 0 -0.0933618
vt 0.0200909 0
vt 0.0200909 0.298225
f 93/75/22 91/76/21 92/77/21

v 0.5 -13.1957 -0.41
vt 0.0179513 0
f 91/76/21 93/75/22 94/78/22

v 0.5 -1.26419 0.41
vt 0.0025 0.298225
vn 0.995632 0 0.0933626
vt 0.023 0
vt 0.023 0.298225
f 95/79/23 94/80/22 93/81/22

v 0.5 -13.1957 0.41
vt 0.0025 0
f 94/80/22 95/79/23 96/82/23

v 0.48409 -1.26419 0.49409
vt 0.00496462 0.298225
vn 0.707106 0 0.707107
vt 0.00710416 0
vt 0.00710416 0.298225
f 97/83/24 96/84/23 95/85/23

v 0.48409 -13.1957 0.49409
vt 0.00496462 0
f 96/84/23 97/83/24 98/86/24

vt 0.0242473 0.298225
v 0.4 -13.1957 0.51
vt 0.0221078 0
vn 0.0933618 0 0.995632
vt 0.0242473 0
f 97/87/24 99/88/25 98/89/24

v 0.4 -1.26419 0.51
vt 0.0221078 0.298225
f 99/88/25 97/87/24 100/90/25

vt 0.0225 0.298225
v 2.22045e-16 -13.1957 0.51
vt 0.0125 0
vt 0.0225 0
f 100/91/25 101/92/2 99/93/25

v 2.22045e-16 -1.26419 0.51
vt 0.0125 0.298225
f 101/92/2 100/91/25 102/94/2

v -0.4 -13.1957 0.51
vn -0.0933626 0 0.995632
f 102/94/2 103/82/26 101/92/2

v -0.4 -1.26419 0.51
f 103/82/26 102/94/2 104/79/26

vt 0.00245642 0.298225
vt 0.000316875 0
vt 0.00245642 0
f 104/95/26 80/96/16 103/97/26

vt 0.000316875 0.298225
f 80/96/16 104/95/26 81/98/16

g Mesh7 Group1 Model

v -0.638998 -1.26419 -0.652198
vt 0.0121022 0.0131562
vn 0 -1 -0
v -0.66 -1.26419 0.5412
vt 0.0125 -0.0109172
v -0.66 -1.26419 -0.5412
vt 0.0125 0.0109172
f 105/99/27 106/100/27 107/101/27

v -0.638998 -1.26419 0.652198
vt 0.0121022 -0.0131562
f 106/100/27 105/99/27 108/102/27

v -0.528 -1.26419 -0.6732
vt 0.01 0.0135799
f 108/102/27 105/99/27 109/103/27

v -0.638998 -0.37928 -0.652198
vt 0.00959486 -0.00765089
vt 0.00745532 -0.0255013
vt 0.00959486 -0.0255013
f 110/104/18 109/105/19 105/106/18

v -0.528 -0.37928 -0.6732
vt 0.00745532 -0.00765089
f 109/105/19 110/104/18 111/107/19

vt -0.0121022 0.0131562
vn 0 1 -0
v -0.528 -0.37928 0.6732
vt -0.01 -0.0135799
vt -0.01 0.0135799
f 110/108/28 112/109/28 111/110/28

v -0.638998 -0.37928 0.652198
vt -0.0121022 -0.0131562
f 110/108/28 113/111/28 112/109/28

v -0.66 -0.37928 -0.5412
vt -0.0125 0.0109172
f 114/112/28 113/111/28 110/108/28

v -0.66 -0.37928 0.5412
vt -0.0125 -0.0109172
f 113/111/28 114/112/28 115/113/28

vt -0.01025 -0.00765089
vt 0.01025 -0.0255013
vt 0.01025 -0.00765089
f 114/114/17 106/115/15 115/116/15

vt -0.01025 -0.0255013
f 106/115/15 114/114/17 107/117/17

vt -0.009887 -0.00765089
vt -0.00774746 -0.0255013
vt -0.00774746 -0.00765089
f 110/118/18 107/119/17 114/120/17

vt -0.009887 -0.0255013
f 107/119/17 110/118/18 105/121/18

vt 0.009887 -0.0255013
vt 0.00774746 -0.00765089
vt 0.00774746 -0.0255013
f 108/122/16 115/123/15 106/124/15

vt 0.009887 -0.00765089
f 115/123/15 108/122/16 113/125/16

vt -0.00959486 -0.0255013
vt -0.00745532 -0.00765089
vt -0.00959486 -0.00765089
f 108/126/16 112/127/26 113/128/16

v -0.528 -1.26419 0.6732
vt -0.00745532 -0.0255013
f 112/127/26 108/126/16 116/129/26

vt 0.01 -0.0135799
f 108/102/27 109/103/27 116/130/27

v 0.528 -1.26419 -0.6732
f 116/130/27 109/103/27 117/110/27

vt 0.01 -0.00765089
vt -0.01 -0.0255013
vt 0.01 -0.0255013
f 111/131/19 117/132/20 109/133/19

v 0.528 -0.37928 -0.6732
vt -0.01 -0.00765089
f 117/132/20 111/131/19 118/134/20

v 0.528 -0.37928 0.6732
f 111/110/28 119/130/28 118/103/28

f 111/110/28 112/109/28 119/130/28

f 116/132/26 119/131/25 112/134/26

v 0.528 -1.26419 0.6732
f 119/131/25 116/132/26 120/133/25

f 116/130/27 117/110/27 120/109/27

v 0.638998 -1.26419 -0.652198
f 120/109/27 117/110/27 121/108/27

f 118/127/20 121/126/21 117/129/20

v 0.638998 -0.37928 -0.652198
f 121/126/21 118/127/20 122/128/21

v 0.638998 -0.37928 0.652198
f 118/103/28 123/102/28 122/99/28

f 118/103/28 119/130/28 123/102/28

vt 0.00745535 -0.0255013
vt 0.00959488 -0.00765089
vt 0.00745535 -0.00765089
f 120/135/25 123/136/24 119/137/25

v 0.638998 -1.26419 0.652198
vt 0.00959488 -0.0255013
f 123/136/24 120/135/25 124/138/24

f 120/109/27 121/108/27 124/111/27

v 0.66 -1.26419 0.5412
f 124/111/27 121/108/27 125/113/27

v 0.66 -1.26419 -0.5412
f 125/113/27 121/108/27 126/112/27

v 0.66 -0.37928 -0.5412
f 121/122/21 127/123/22 126/124/22

f 127/123/22 121/122/21 122/125/21

v 0.66 -0.37928 0.5412
f 122/99/28 128/100/28 127/101/28

f 122/99/28 123/102/28 128/100/28

vt -0.00988698 -0.00765089
vt -0.00774744 -0.0255013
vt -0.00774744 -0.00765089
f 123/139/24 125/140/23 128/141/23

vt -0.00988698 -0.0255013
f 125/140/23 123/139/24 124/142/24

f 126/115/22 128/114/23 125/117/23

f 128/114/23 126/115/22 127/116/22

