# Alias OBJ Model File
# Exported from SketchUp, (c) 2000-2012 Trimble Navigation Limited
# File units = meters

mtllib xsp.mtl

g Mesh1 Group1 Model

usemtl xsp#light
v 1.235 2.80501 -4.92588
vt 3.55271e-15 0
vn -1 0 -0
v 1.235 2.61549 -4.61397
vt 1 1
v 1.235 2.80501 -4.61397
vt 1 0
f 1/1/1 2/2/1 3/3/1

v 1.235 2.61549 -4.92588
vt 3.55271e-15 1
f 2/2/1 1/1/1 4/4/1

g Mesh2 Group1 Model

v 1.235 2.80501 2.34005
vt 1.77636e-15 0
v 1.235 2.61549 2.65196
v 1.235 2.80501 2.65196
f 5/5/1 6/2/1 7/3/1

v 1.235 2.61549 2.34005
vt 1.77636e-15 1
f 6/2/1 5/5/1 8/6/1

g Mesh3 Group1 Model

v 1.235 2.80501 4.61005
vt 2.22045e-16 0
v 1.235 2.61549 4.92196
v 1.235 2.80501 4.92196
f 9/7/1 10/2/1 11/3/1

v 1.235 2.61549 4.61005
vt 2.22045e-16 1
f 10/2/1 9/7/1 12/8/1

g Mesh4 Group1 Model

v -1.235 2.61549 -4.92588
vn 1 0 -0
v -1.235 2.80501 -4.61397
v -1.235 2.61549 -4.61397
f 13/2/2 14/1/2 15/4/2

v -1.235 2.80501 -4.92588
vt 1 8.88178e-16
f 14/1/2 13/2/2 16/9/2

g Mesh5 Group1 Model

v 1.235 2.80501 -2.65588
vt -3.55271e-15 0
v 1.235 2.61549 -2.34397
v 1.235 2.80501 -2.34397
f 17/10/1 18/2/1 19/3/1

v 1.235 2.61549 -2.65588
vt -3.55271e-15 1
f 18/2/1 17/10/1 20/11/1

g Mesh6 Group1 Model

v -1.235 2.61549 2.34005
v -1.235 2.80501 2.65196
vt -8.88178e-16 2.22045e-16
v -1.235 2.61549 2.65196
vt 0 1
f 21/2/2 22/12/2 23/13/2

v -1.235 2.80501 2.34005
vt 1 -1.11022e-15
f 22/12/2 21/2/2 24/14/2

g Mesh7 Group1 Model

v -1.235 2.61549 4.61005
v -1.235 2.80501 4.92196
vt 0 0
v -1.235 2.61549 4.92196
vt 4.65262e-16 1
f 25/2/2 26/15/2 27/16/2

v -1.235 2.80501 4.61005
vt 1 6.66134e-16
f 26/15/2 25/2/2 28/17/2

g Mesh8 Group1 Model

v -1.235 2.61549 -2.65588
v -1.235 2.80501 -2.34397
v -1.235 2.61549 -2.34397
f 29/2/2 30/1/2 31/4/2

v -1.235 2.80501 -2.65588
f 30/1/2 29/2/2 32/17/2

